# xmcd
#
# Track frame offsets: 
#        150
#        33650
#        56607
#        77505
#        87912
#        105567
#        121150
#        170434
#
# Disc length: 2583 seconds
#
# Revision: 1
# Processed by: cddbd v1.5.2PL0 Copyright (c) Steve Scherf et al.
# Submitted via: ExactAudioCopy v0.99pb4
#
DISCID=5a0a1508
DTITLE=Bo Diddley and Mainsqueeze - Vamp. Live! (Europe, September 1984)
DYEAR=2006
DGENRE=Blues
TTITLE0=Intro - Bo Diddley
TTITLE1=Doctor Jekyll
TTITLE2=Everleen
TTITLE3=I Don't Know Where I've Been
TTITLE4=You Can't Judge a Book
TTITLE5=Roadrunner
TTITLE6=I'm a Man
TTITLE7=Mona
EXTD=YEAR: 2006
EXTT0=
EXTT1=
EXTT2=
EXTT3=
EXTT4=
EXTT5=
EXTT6=
EXTT7=
PLAYORDER=
